<svg xmlns="http://www.w3.org/2000/svg" version="1.1" xmlns:xlink="http://www.w3.org/1999/xlink" xmlns:svgjs="http://svgjs.dev/svgjs" width="1500" height="140" viewBox="0 0 1500 140"><g transform="matrix(1,0,0,1,-0.9090908848186245,-0.2990491618363791)"><svg viewBox="0 0 396 37" data-background-color="#ffffff" preserveAspectRatio="xMidYMid meet" height="140" width="1500" xmlns="http://www.w3.org/2000/svg" xmlns:xlink="http://www.w3.org/1999/xlink"><g id="tight-bounds" transform="matrix(1,0,0,1,0.23999999359210733,0.0790344213424703)"><svg viewBox="0 0 395.52 36.841931157315074" height="36.841931157315074" width="395.52"><g><svg viewBox="0 0 395.52 36.841931157315074" height="36.841931157315074" width="395.52"><g><svg viewBox="0 0 395.52 36.841931157315074" height="36.841931157315074" width="395.52"><g id="textblocktransform"><svg viewBox="0 0 395.52 36.841931157315074" height="36.841931157315074" width="395.52" id="textblock"><g><svg viewBox="0 0 395.52 36.841931157315074" height="36.841931157315074" width="395.52"><g transform="matrix(1,0,0,1,0,0)"><svg width="395.52" viewBox="4 -39.95 434.2247618740401 40.45" height="36.841931157315074" data-palette-color="#000000"><path d="M14.85-5L21.65-5Q23.5-5 24.25-6.05 25-7.1 25-8.4L25-8.4 25-31.3Q25-32.55 24.25-33.6 23.5-34.65 21.65-34.65L21.65-34.65 9.95-34.65 9.9-2.05Q9.9-0.95 9.05-0.3 8.2 0.35 6.95 0.35L6.95 0.35Q4 0.35 4-2.05L4-2.05 4-36.7Q4-38.5 4.93-39.1 5.85-39.7 7.15-39.7L7.15-39.7 22.9-39.7Q24.2-39.7 25.6-39.15 27-38.6 28.3-37.75L28.3-37.75 28.25-37.75Q29.55-36.8 30.25-35.27 30.95-33.75 30.95-31.75L30.95-31.75 30.95-8Q30.95-3.95 28.25-1.95L28.25-1.95Q26.95-1 25.58-0.48 24.2 0.05 22.9 0.05L22.9 0.05 14.5 0.05Q13.65 0.05 13.18-0.65 12.7-1.35 12.7-2.5L12.7-2.5Q12.7-5 14.85-5L14.85-5ZM62.65-1.2L51.65-34.8 40.7-1.2 40.7-1.25Q40.4-0.5 39.87-0.03 39.35 0.45 38.6 0.45L38.6 0.45Q38.2 0.45 37.82 0.38 37.45 0.3 37.05 0.2L37.05 0.2 37.1 0.2Q34.25-0.7 35-3L35-3 46.4-37.65Q46.65-38.45 47.27-39 47.9-39.55 48.75-39.65L48.75-39.65Q49.6-39.8 50.4-39.88 51.2-39.95 51.65-39.95L51.65-39.95Q52.1-39.95 52.9-39.88 53.7-39.8 54.55-39.7L54.55-39.7Q55.25-39.6 55.92-38.95 56.6-38.3 56.95-37.65L56.95-37.65Q59.75-29.05 62.62-20.33 65.5-11.6 68.3-3L68.3-3Q69-0.7 66.2 0.2L66.2 0.2Q65.8 0.3 65.47 0.38 65.15 0.45 64.75 0.45L64.75 0.45Q64.05 0.45 63.47-0.03 62.9-0.5 62.65-1.25L62.65-1.25 62.65-1.2ZM55.4-12L55.4-12Q55.4-10.4 54.27-9.28 53.15-8.15 51.55-8.15L51.55-8.15Q49.95-8.15 48.85-9.28 47.75-10.4 47.75-12L47.75-12Q47.75-13.6 48.85-14.73 49.95-15.85 51.55-15.85L51.55-15.85Q53.15-15.85 54.27-14.73 55.4-13.6 55.4-12ZM96.4-0.6L86.95-16.45 83.1-16.45Q82.25-16.45 81.77-17.13 81.3-17.8 81.3-18.95L81.3-18.95Q81.3-21.5 83.4-21.5L83.4-21.5 89.25-21.5Q91.1-21.5 91.85-22.55 92.6-23.6 92.6-24.85L92.6-24.85 92.6-31.3Q92.6-32.55 91.85-33.6 91.1-34.65 89.25-34.65L89.25-34.65 78.7-34.65 78.7-2.05Q78.7 0.35 75.75 0.35L75.75 0.35Q72.8 0.35 72.8-2.05L72.8-2.05 72.8-36.7Q72.8-38.5 73.72-39.1 74.65-39.7 75.95-39.7L75.95-39.7 90.5-39.7Q91.8-39.7 93.2-39.15 94.6-38.6 95.9-37.75L95.9-37.75 95.85-37.75Q97.15-36.8 97.85-35.27 98.55-33.75 98.55-31.75L98.55-31.75 98.55-24.45Q98.55-20.4 95.85-18.4L95.85-18.4Q95.3-18 94.67-17.65 94.05-17.3 93.4-16.95L93.4-16.95 101.4-3.75Q101.55-3.5 101.7-3.1 101.85-2.7 101.85-2.45L101.85-2.45Q101.85-1.25 100.15-0.15L100.15-0.15 100.15-0.2Q99 0.5 98.2 0.5L98.2 0.5Q97.05 0.5 96.35-0.65L96.35-0.65 96.4-0.6ZM130.09-0.6L120.64-16.45 116.79-16.45Q115.94-16.45 115.47-17.13 114.99-17.8 114.99-18.95L114.99-18.95Q114.99-21.5 117.09-21.5L117.09-21.5 122.94-21.5Q124.79-21.5 125.54-22.55 126.29-23.6 126.29-24.85L126.29-24.85 126.29-31.3Q126.29-32.55 125.54-33.6 124.79-34.65 122.94-34.65L122.94-34.65 112.39-34.65 112.39-2.05Q112.39 0.35 109.44 0.35L109.44 0.35Q106.49 0.35 106.49-2.05L106.49-2.05 106.49-36.7Q106.49-38.5 107.42-39.1 108.34-39.7 109.64-39.7L109.64-39.7 124.19-39.7Q125.49-39.7 126.89-39.15 128.29-38.6 129.59-37.75L129.59-37.75 129.54-37.75Q130.84-36.8 131.54-35.27 132.24-33.75 132.24-31.75L132.24-31.75 132.24-24.45Q132.24-20.4 129.54-18.4L129.54-18.4Q128.99-18 128.37-17.65 127.74-17.3 127.09-16.95L127.09-16.95 135.09-3.75Q135.24-3.5 135.39-3.1 135.54-2.7 135.54-2.45L135.54-2.45Q135.54-1.25 133.84-0.15L133.84-0.15 133.84-0.2Q132.69 0.5 131.89 0.5L131.89 0.5Q130.74 0.5 130.04-0.65L130.04-0.65 130.09-0.6ZM161.69 0.05L143.39 0.05Q141.54 0.05 140.89-0.9 140.24-1.85 140.24-3L140.24-3 140.24-36.7Q140.24-37.85 140.89-38.78 141.54-39.7 143.39-39.7L143.39-39.7 160.79-39.7Q162.64-39.7 162.74-37.2L162.74-37.2Q162.84-34.65 160.79-34.65L160.79-34.65 146.14-34.65 146.14-5 161.69-5Q163.54-5 163.59-2.55L163.59-2.55Q163.69 0.05 161.69 0.05L161.69 0.05ZM158.94-20.65L158.94-20.65Q158.94-18.9 157.72-17.7 156.49-16.5 154.74-16.5L154.74-16.5Q153.04-16.5 151.84-17.7 150.64-18.9 150.64-20.65L150.64-20.65Q150.64-22.4 151.84-23.6 153.04-24.8 154.74-24.8L154.74-24.8Q156.49-24.8 157.72-23.6 158.94-22.4 158.94-20.65ZM191.14-10.5L191.14-37.55Q191.14-39.95 194.09-39.95L194.09-39.95Q197.04-39.95 197.04-37.55L197.04-37.55 197.04-3.05Q197.04-1.3 195.19-0.5L195.19-0.5 195.24-0.5Q194.44-0.15 193.54 0.05 192.64 0.25 191.79 0.25L191.79 0.25Q191.14 0.25 190.44 0.13 189.74 0 189.11-0.28 188.49-0.55 187.96-1.03 187.44-1.5 187.14-2.2L187.14-2.2 176.29-29.25 174.94-29.1 174.94-2.1Q174.94 0.3 171.94 0.3L171.94 0.3Q168.99 0.3 168.99-2.1L168.99-2.1 168.99-36.55Q168.99-38.6 170.79-39.3L170.79-39.3Q172.44-39.95 174.29-39.95L174.29-39.95Q175.59-39.95 176.91-39.43 178.24-38.9 178.94-37.45L178.94-37.45 189.74-10.35 191.14-10.5ZM232.83-34.65L232.83-2Q232.83 0.4 229.83 0.4L229.83 0.4Q226.88 0.4 226.88-2L226.88-2 226.88-34.65 218.13-34.65Q216.33-34.65 216.23-37.2L216.23-37.2Q216.23-39.7 218.13-39.7L218.13-39.7 241.58-39.7Q243.48-39.7 243.38-37.2L243.38-37.2Q243.38-34.65 241.58-34.65L241.58-34.65 232.83-34.65ZM269.33 0.05L251.03 0.05Q249.18 0.05 248.53-0.9 247.88-1.85 247.88-3L247.88-3 247.88-36.7Q247.88-37.85 248.53-38.78 249.18-39.7 251.03-39.7L251.03-39.7 268.43-39.7Q270.28-39.7 270.38-37.2L270.38-37.2Q270.48-34.65 268.43-34.65L268.43-34.65 253.78-34.65 253.78-5 269.33-5Q271.18-5 271.23-2.55L271.23-2.55Q271.33 0.05 269.33 0.05L269.33 0.05ZM266.58-20.65L266.58-20.65Q266.58-18.9 265.36-17.7 264.13-16.5 262.38-16.5L262.38-16.5Q260.68-16.5 259.48-17.7 258.28-18.9 258.28-20.65L258.28-20.65Q258.28-22.4 259.48-23.6 260.68-24.8 262.38-24.8L262.38-24.8Q264.13-24.8 265.36-23.6 266.58-22.4 266.58-20.65ZM300.23-0.6L290.78-16.45 286.93-16.45Q286.08-16.45 285.6-17.13 285.13-17.8 285.13-18.95L285.13-18.95Q285.13-21.5 287.23-21.5L287.23-21.5 293.08-21.5Q294.93-21.5 295.68-22.55 296.43-23.6 296.43-24.85L296.43-24.85 296.43-31.3Q296.43-32.55 295.68-33.6 294.93-34.65 293.08-34.65L293.08-34.65 282.53-34.65 282.53-2.05Q282.53 0.35 279.58 0.35L279.58 0.35Q276.63 0.35 276.63-2.05L276.63-2.05 276.63-36.7Q276.63-38.5 277.55-39.1 278.48-39.7 279.78-39.7L279.78-39.7 294.33-39.7Q295.63-39.7 297.03-39.15 298.43-38.6 299.73-37.75L299.73-37.75 299.68-37.75Q300.98-36.8 301.68-35.27 302.38-33.75 302.38-31.75L302.38-31.75 302.38-24.45Q302.38-20.4 299.68-18.4L299.68-18.4Q299.13-18 298.5-17.65 297.88-17.3 297.23-16.95L297.23-16.95 305.23-3.75Q305.38-3.5 305.53-3.1 305.68-2.7 305.68-2.45L305.68-2.45Q305.68-1.25 303.98-0.15L303.98-0.15 303.98-0.2Q302.83 0.5 302.03 0.5L302.03 0.5Q300.88 0.5 300.18-0.65L300.18-0.65 300.23-0.6ZM331.48-2.1L331.48-37.55Q331.48-39.95 334.43-39.95L334.43-39.95Q337.43-39.95 337.43-37.55L337.43-37.55 337.43-2.1Q337.43 0.3 334.43 0.3L334.43 0.3Q331.48 0.3 331.48-2.1L331.48-2.1ZM316.28-37.55L316.28-2.1Q316.28 0.3 313.28 0.3L313.28 0.3Q310.33 0.3 310.33-2.1L310.33-2.1 310.33-37.55Q310.33-39.95 313.28-39.95L313.28-39.95Q316.28-39.95 316.28-37.55L316.28-37.55ZM327.98-20.65L327.98-20.65Q327.98-18.9 326.78-17.7 325.58-16.5 323.83-16.5L323.83-16.5Q322.13-16.5 320.93-17.7 319.73-18.9 319.73-20.65L319.73-20.65Q319.73-22.4 320.93-23.6 322.13-24.8 323.83-24.8L323.83-24.8Q325.58-24.8 326.78-23.6 327.98-22.4 327.98-20.65ZM371.67-37.55L371.67-8Q371.67-3.95 368.97-1.95L368.97-1.95Q367.67-1 366.3-0.48 364.92 0.05 363.62 0.05L363.62 0.05 352.72 0.05Q351.42 0.05 350.05-0.48 348.67-1 347.37-1.95L347.37-1.95Q346.07-2.95 345.37-4.42 344.67-5.9 344.67-8L344.67-8 344.67-37.55Q344.67-39.95 347.62-39.95L347.62-39.95Q350.62-39.95 350.62-37.55L350.62-37.55 350.62-8.4Q350.62-7.1 351.37-6.05 352.12-5 353.97-5L353.97-5 362.37-5Q364.22-5 364.97-6.05 365.72-7.1 365.72-8.4L365.72-8.4 365.72-37.55Q365.72-39.95 368.67-39.95L368.67-39.95Q371.67-39.95 371.67-37.55L371.67-37.55ZM401.47-10.5L401.47-37.55Q401.47-39.95 404.42-39.95L404.42-39.95Q407.37-39.95 407.37-37.55L407.37-37.55 407.37-3.05Q407.37-1.3 405.52-0.5L405.52-0.5 405.57-0.5Q404.77-0.15 403.87 0.05 402.97 0.25 402.12 0.25L402.12 0.25Q401.47 0.25 400.77 0.13 400.07 0 399.45-0.28 398.82-0.55 398.3-1.03 397.77-1.5 397.47-2.2L397.47-2.2 386.62-29.25 385.27-29.1 385.27-2.1Q385.27 0.3 382.27 0.3L382.27 0.3Q379.32 0.3 379.32-2.1L379.32-2.1 379.32-36.55Q379.32-38.6 381.12-39.3L381.12-39.3Q382.77-39.95 384.62-39.95L384.62-39.95Q385.92-39.95 387.25-39.43 388.57-38.9 389.27-37.45L389.27-37.45 400.07-10.35 401.47-10.5ZM436.32 0.05L418.02 0.05Q416.17 0.05 415.52-0.9 414.87-1.85 414.87-3L414.87-3 414.87-36.7Q414.87-37.85 415.52-38.78 416.17-39.7 418.02-39.7L418.02-39.7 435.42-39.7Q437.27-39.7 437.37-37.2L437.37-37.2Q437.47-34.65 435.42-34.65L435.42-34.65 420.77-34.65 420.77-5 436.32-5Q438.17-5 438.22-2.55L438.22-2.55Q438.32 0.05 436.32 0.05L436.32 0.05ZM433.57-20.65L433.57-20.65Q433.57-18.9 432.34-17.7 431.12-16.5 429.37-16.5L429.37-16.5Q427.67-16.5 426.47-17.7 425.27-18.9 425.27-20.65L425.27-20.65Q425.27-22.4 426.47-23.6 427.67-24.8 429.37-24.8L429.37-24.8Q431.12-24.8 432.34-23.6 433.57-22.4 433.57-20.65Z" opacity="1" transform="matrix(1,0,0,1,0,0)" fill="#000000" class="wordmark-text-0" data-fill-palette-color="primary" id="text-0"></path></svg></g></svg></g></svg></g></svg></g></svg></g><defs></defs></svg><rect width="395.52" height="36.841931157315074" fill="none" stroke="none" visibility="hidden"></rect></g></svg></g></svg>